<svg width="20" height="20" viewBox="0 0 20 20" fill="none" xmlns="http://www.w3.org/2000/svg">
<path fill-rule="evenodd" clip-rule="evenodd" d="M17.8064 9.6114C17.9377 9.85672 17.9377 10.1434 17.8064 10.3887C17.1354 11.6426 14.6899 15.5 10 15.5C5.31022 15.5 2.86473 11.6426 2.19368 10.3887C2.06239 10.1434 2.06239 9.85672 2.19368 9.6114C2.86473 8.35749 5.31022 4.50005 10 4.50005C14.6899 4.50005 17.1354 8.35749 17.8064 9.6114ZM13.3809 10.0001C13.3809 11.8673 11.8673 13.3809 10.0001 13.3809C8.13285 13.3809 6.61919 11.8673 6.61919 10.0001C6.61919 8.13285 8.13285 6.61919 10.0001 6.61919C11.8673 6.61919 13.3809 8.13285 13.3809 10.0001ZM10.0002 11.251C10.6911 11.251 11.2512 10.6909 11.2512 10C11.2512 9.30914 10.6911 8.74907 10.0002 8.74907C9.30934 8.74907 8.74927 9.30914 8.74927 10C8.74927 10.6909 9.30934 11.251 10.0002 11.251Z" fill="#BDBDBD"/>
</svg>
