<svg width="20" height="20" viewBox="0 0 20 20" fill="none" xmlns="http://www.w3.org/2000/svg">
<path fill-rule="evenodd" clip-rule="evenodd" d="M16.0103 3.28247L3.28235 16.0104L3.98946 16.7175L6.17723 14.5297C6.17724 14.5297 6.17725 14.5297 6.17725 14.5297L7.98894 12.718C7.98894 12.718 7.98893 12.718 7.98892 12.718L12.7179 7.98902C12.7179 7.98902 12.7179 7.98903 12.7179 7.98903L14.6912 6.01582C14.6912 6.01581 14.6912 6.01581 14.6911 6.01581L16.7174 3.98958L16.0103 3.28247ZM9.99992 4.50002C11.0662 4.50002 12.0165 4.69942 12.8563 5.0223L11.0824 6.79616C10.7426 6.68138 10.3785 6.61916 9.99993 6.61916C8.13273 6.61916 6.61906 8.13282 6.61906 10C6.61906 10.3786 6.68129 10.7426 6.79607 11.0825L4.52294 13.3556C3.28111 12.249 2.52322 11.0047 2.19356 10.3887C2.06227 10.1433 2.06227 9.85669 2.19356 9.61137C2.86461 8.35746 5.3101 4.50002 9.99992 4.50002ZM9.99993 13.3809C9.62131 13.3809 9.25723 13.3186 8.91735 13.2038L7.1435 14.9777C7.98329 15.3006 8.9336 15.5 9.99992 15.5C14.6897 15.5 17.1352 11.6426 17.8063 10.3887C17.9376 10.1433 17.9376 9.85669 17.8063 9.61137C17.4766 8.99537 16.7187 7.75102 15.4768 6.64436L13.2038 8.91744C13.3186 9.25732 13.3808 9.6214 13.3808 10C13.3808 11.8672 11.8671 13.3809 9.99993 13.3809Z" fill="#BDBDBD"/>
</svg>
