<?xml version="1.0" standalone="no"?><!DOCTYPE svg PUBLIC "-//W3C//DTD SVG 1.1//EN" "http://www.w3.org/Graphics/SVG/1.1/DTD/svg11.dtd"><svg t="1686666544564" class="icon" viewBox="0 0 1024 1024" version="1.1" xmlns="http://www.w3.org/2000/svg" p-id="3235" xmlns:xlink="http://www.w3.org/1999/xlink" width="200" height="200"><path d="M128 512.042667v377.429333C128 916.650667 151.210667 938.666667 180.010667 938.666667h259.797333c28.672 0 52.010667-22.016 52.010667-49.194667s-23.253333-49.194667-52.053334-49.194667h-207.786666V183.722667h207.914666c28.672 0 52.010667-22.016 52.010667-49.194667S468.693333 85.333333 439.893333 85.333333H180.053333C151.338667 85.333333 128 107.349333 128 134.528v377.514667z m751.744-35.584a49.237333 49.237333 0 0 1 0 73.258666l-164.138667 147.626667a49.28 49.28 0 0 1-82.176-36.650667c0-14.506667 6.357333-27.605333 16.341334-36.565333l68.778666-61.866667h-298.666666a49.194667 49.194667 0 1 1 0-98.389333h298.496l-68.778667-61.866667a49.152 49.152 0 0 1 32.853333-85.802666c12.672 0 24.192 4.693333 32.938667 12.629333l164.352 147.626667z" fill="#858EBD" p-id="3236"></path></svg>