<?xml version="1.0" standalone="no"?><!DOCTYPE svg PUBLIC "-//W3C//DTD SVG 1.1//EN" "http://www.w3.org/Graphics/SVG/1.1/DTD/svg11.dtd"><svg class="icon" width="35px" height="35.00px" viewBox="0 0 1024 1024" version="1.1" xmlns="http://www.w3.org/2000/svg"><path fill="#8a8a8a" d="M512 0C229.2224 0 0 229.2224 0 512s229.2224 512 512 512 512-229.2224 512-512S794.7776 0 512 0z m182.971733 618.171733l-156.296533 156.296534a33.928533 33.928533 0 0 1-5.2224 4.266666c-0.836267 0.5632-1.757867 0.955733-2.645333 1.4336-1.0752 0.580267-2.0992 1.2288-3.242667 1.706667-1.1264 0.4608-2.304 0.733867-3.464533 1.0752-0.9728 0.290133-1.911467 0.6656-2.9184 0.8704a33.826133 33.826133 0 0 1-13.380267 0c-1.024-0.2048-1.962667-0.580267-2.952533-0.8704-1.143467-0.341333-2.304-0.597333-3.413334-1.058133-1.1776-0.477867-2.235733-1.143467-3.345066-1.757867-0.836267-0.4608-1.723733-0.836267-2.525867-1.3824a35.003733 35.003733 0 0 1-5.239467-4.283733l-156.3136-156.3136c-12.032-12.032-14.984533-31.3856-5.051733-45.2096a34.133333 34.133333 0 0 1 51.985067-4.386134l70.263466 70.263467c10.752 10.752 29.1328 3.140267 29.1328-12.066133v-352.426667c0-16.9984 11.6224-32.768 28.398934-35.498667a34.1504 34.1504 0 0 1 39.867733 33.672534v354.2528c0 15.2064 18.3808 22.818133 29.1328 12.066133l70.263467-70.2464a34.133333 34.133333 0 0 1 51.985066 4.386133c9.966933 13.824 7.0144 33.1776-5.0176 45.2096z"  /></svg>