<?xml version="1.0" standalone="no"?><!DOCTYPE svg PUBLIC "-//W3C//DTD SVG 1.1//EN" "http://www.w3.org/Graphics/SVG/1.1/DTD/svg11.dtd"><svg t="1686982996540" class="icon" viewBox="0 0 1024 1024" version="1.1" xmlns="http://www.w3.org/2000/svg" p-id="4623" width="30" height="30" xmlns:xlink="http://www.w3.org/1999/xlink"><path d="M657.544329 629.586069l0-0.75213-0.278339 0L657.544329 629.586069zM657.544329 629.586069" fill="#272636" p-id="4624"></path><path d="M642.717645 611.219769c1.059122 1.783623 1.727341 3.846608 4.458545 5.29561-0.50142-0.50142-1.170662-0.947582-1.727341-1.449002C644.891148 613.254102 643.665227 612.251262 642.717645 611.219769L642.717645 611.219769zM642.717645 611.219769" fill="#272636" p-id="4625"></path><path d="M913.897881 678.582993c-31.940456-14.268982-76.756151-49.749054-69.119217-90.63423 6.633071-1.171686 6.076392-6.382361 12.095479-6.382361 8.471952-26.253944-15.384385-37.792745-17.502629-63.712067 42.585911-18.534122-21.126156-48.13223-1.170662-70.707388-3.121084-36.232203-45.260833-32.134885-55.183833-64.965617 60.7015-7.777127 43.589774-59.420321 60.089563-98.048083-14.994506-19.34151 4.403287-37.290301-11.092639-56.856939 2.731204-5.490038 2.117221-13.266142 7.246031-17.11275-1.505283-7.692193-3.288906-15.801894-5.128811-23.856337 10.034541-30.323633 8.919137-68.728314 2.341325-110.199845-16.610306-16.833387-58.081837-11.259438-80.713276-1.867534-46.932915 19.063171-102.507652 81.214696-131.4928 120.985492-33.165354 45.818535-53.510728 97.79635-70.121034 145.232732-6.076392 6.661723-9.029654 15.830547-6.912433 24.63712 0 1.366114 0.334621 1.867534 0.669242 2.981914-1.783623 8.027837-2.062985 18.199501-6.745634 21.544689 2.508123 2.647293 4.181229 6.577812 6.745634 9.559727 11.81714 20.262486 25.584702 44.536332 37.4571 72.76935 13.879102 31.187303 23.521716 60.534701 29.43131 84.558861 13.990642 18.813484 25.13854 35.31225 28.650527 42.810015 3.122107 9.058306 8.361435 20.623713 15.049764 17.86488 1.783623 21.126156 22.353101 54.0408 43.812855 61.147662 6.02011-0.696872 5.071506-5.824659 12.652158-6.327102 19.397792 8.639774 19.844977 44.954865 51.894927 34.113959 5.128811-33.082466 31.828916-17.61417 55.072293-15.663748 7.525394-40.077787 54.403051-10.841929 77.870532 15.663748 21.794375 24.970718 42.25129 55.210439 68.838831 27.702945C966.850907 689.090301 938.814364 690.205705 913.897881 678.582993L913.897881 678.582993zM650.35458 607.290273c0.50142 1.198292 2.229784 2.480494 2.731204 3.316535 0.613984 0.61296 1.170662 1.198292 1.950422 1.727341C652.138202 610.606809 650.856 609.240695 650.35458 607.290273L650.35458 607.290273zM665.627425 626.019847c0-0.447185-0.333598-1.199315-0.333598-1.199315l0.333598 0L665.627425 626.019847 665.627425 626.019847zM665.627425 626.019847" fill="#272636" p-id="4626"></path><path d="M577.445036 475.881384c-12.151761-27.620058-24.803919-52.508911-37.290301-72.408123-2.508123-3.929496-4.458545-6.688329-6.353708-10.507308-5.463432-6.689353-10.256598-13.267165-14.326287-18.562774 9.531074-11.287067 12.709463-28.120454 6.29845-43.339064-1.895163-3.678786-4.068665-6.577812-6.29845-9.670244-1.449002-40.886199 0.224104-167.139671 84.559884-192.278211 1.672082 2.229784 4.960988 3.261277 8.806573 3.261277 7.134491 0 12.485359-4.960988 12.485359-10.701736 0-6.076392-5.406127-11.037381-12.485359-11.037381-6.02011 0-11.20418 3.874237-12.151761 8.919137-85.952604 25.361621-92.585675 141.888568-91.749634 192.780655-10.145058-6.689353-21.515013-7.803733-33.499975-3.930519-8.751315-52.173267-14.268982-142.194536 47.323818-177.311335 1.727341 0.836041 4.459568 1.366114 6.243191 1.366114 7.303336 0 13.099343-4.962012 13.099343-10.70276 0-6.076392-5.796006-11.008728-13.099343-11.008728-6.91141 0-12.373819 4.932336-12.373819 11.008728l0 0.613984c-68.450998 39.993876-60.757782 137.623427-50.836829 191.247742-14.381545 11.036357-19.787672 30.768771-12.485359 48.716538 6.411013 15.217586 21.348214 24.63712 36.231179 25.222451 3.232624 26.003234 15.496949 67.474764 34.782178 111.648846 30.267351 70.875211 67.390853 123.020848 82.329077 116.889197 2.118244-0.947582 4.124947-4.207835 5.240351-8.138354 2.451842-9.058306 0.223081-26.336832-5.240351-47.603181C601.190857 536.583908 590.766436 506.734066 577.445036 475.881384L577.445036 475.881384zM577.445036 475.881384" fill="#272636" p-id="4627"></path><path d="M438.371584 881.006262c-8.751315 26.030863-28.873608 45.567825 2.285043 77.703733 38.294165-0.278339 30.43415-35.95284 27.369348-68.951395-2.955308-35.283598 8.137331-89.381703 42.361807-67.196425 14.603603-18.198477 21.795399-48.187489 49.331545-29.096688 29.93273-15.719007 3.901867-41.081651 11.036357-61.092403 5.629207-5.155417 8.695033-0.947582 13.322423-4.821819 9.643638-20.428262 0-58.053184-14.046924-73.912383 6.577812-2.925632 1.838881-14.659885-2.564405-23.216771-3.009544-7.719822-7.302313-27.145244-11.259438-50.249451-13.377682-20.847817-27.927049-48.076972-40.97011-79.597873-12.262278-28.093848-20.345374-54.793954-26.923186-77.313853-0.38988-3.901867-2.062985-7.858992-2.229784-11.482519-5.685489 1.115404-13.210883-5.713119-20.290115-9.949606-0.556679-1.031493-0.668219-1.616824-1.672082-2.564405-4.904707-7.609305-13.600763-11.761881-22.630417-11.957333-45.818535-20.707624-97.491405-41.806151-153.510256-49.386804-48.829102-6.40999-132.162042-9.002025-178.315198 11.844769-22.407336 9.921977-55.016011 36.120662-54.29151 59.754942 25.529443 33.360805 52.564169 60.617589 81.437777 74.302263 4.570085 6.856152 9.197476 13.739932 13.712303 20.178575 6.353708-1.087774 11.594059 4.710278 17.446347 6.52153 3.455705 24.693402 29.877471 23.02132 33.499975 47.239907 39.353286 14.688537 64.99427 62.681598 112.429629 24.080441 16.944927 29.821189-15.050788 57.524135 9.085936 84.726683 30.04427 1.14201 7.580652 67.669192 50.389644 49.608861 17.279548 19.424398 9.197476 44.647873 34.001395 56.632835 4.236488-4.40431 7.580652-0.390903 13.044084-4.40431C455.261253 791.095509 450.077184 848.007707 438.371584 881.006262L438.371584 881.006262zM568.470641 640.929418c1.059122 1.728364 1.170662 3.595898 0.38988 6.884804 0.167822-0.918929 0.167822-1.755993 0.11154-2.620687C568.693722 644.245953 568.973084 642.128733 568.470641 640.929418L568.470641 640.929418zM571.481208 664.925948l-0.892323-0.836041 0.224104-0.25071C570.811965 663.839197 571.146587 664.61998 571.481208 664.925948L571.481208 664.925948zM571.481208 664.925948" fill="#272636" p-id="4628"></path></svg>