<svg t="1687003885392" class="icon" viewBox="0 0 1024 1024" version="1.1" xmlns="http://www.w3.org/2000/svg" p-id="15346" width="35" height="35"><path d="M512 998.4c-19.2 0-38.4-12.8-38.4-19.2C454.4 966.4 128 640 83.2 595.2 32 537.6 0 467.2 0 396.8s32-147.2 83.2-198.4c51.2-51.2 121.6-83.2 198.4-83.2 76.8 0 147.2 32 198.4 83.2 12.8 12.8 25.6 25.6 32 38.4 6.4-12.8 19.2-25.6 32-38.4 51.2-51.2 121.6-83.2 198.4-83.2 76.8 0 147.2 32 198.4 83.2C992 249.6 1024 320 1024 396.8c0 76.8-32 147.2-83.2 198.4-44.8 44.8-371.2 371.2-390.4 384 0 6.4-19.2 19.2-38.4 19.2z" p-id="15347" fill="#DDA0DD"></path></svg>