<svg t="1687074530205" class="icon" viewBox="0 0 1024 1024" version="1.1" xmlns="http://www.w3.org/2000/svg" p-id="19177" width="25" height="25"><path d="M782.595 348.841c16.181 1.742 27.953 16.092 26.6 32.231l-0.068 0.713-46.184 429.57c-5.982 55.646-52.583 97.927-108.34 98.636l-1.693 0.009-290.07-0.69c-55.705-0.132-102.489-41.738-109.305-96.876l-0.194-1.674-46.493-428.949c-1.78-16.426 10.086-31.186 26.503-32.967 16.18-1.755 30.743 9.75 32.865 25.805l0.086 0.711 46.493 428.949c2.75 25.373 23.93 44.684 49.347 45.16l0.84 0.01 290.07 0.689c25.62 0.06 47.194-19.033 50.336-44.384l0.096-0.829 46.183-429.569c1.766-16.427 16.509-28.312 32.928-26.545z m-357.903 83.103c16.278 0 29.518 13.014 29.893 29.21l0.008 0.706v204.81c0 16.523-13.387 29.917-29.901 29.917-16.278 0-29.518-13.014-29.893-29.21l-0.008-0.706V461.86c0-16.523 13.387-29.917 29.901-29.917z m156.004 0c16.278 0 29.518 13.014 29.893 29.21l0.008 0.706v204.81c0 16.523-13.387 29.917-29.901 29.917-16.278 0-29.518-13.014-29.893-29.21l-0.008-0.706V461.86c0-16.523 13.387-29.917 29.901-29.917z m268.403-164.128c16.514 0 29.901 13.394 29.901 29.916 0 16.286-13.007 29.533-29.195 29.908l-0.706 0.008H155.9c-16.514 0-29.901-13.394-29.901-29.916 0-16.286 13.007-29.533 29.195-29.908l0.706-0.008H849.1zM620.003 165c16.514 0 29.902 13.394 29.902 29.916 0 16.286-13.008 29.533-29.196 29.908l-0.706 0.008H384.758c-16.514 0-29.901-13.394-29.901-29.916 0-16.286 13.007-29.533 29.195-29.908l0.706-0.008h235.245z" fill="#707070" p-id="19178"></path></svg>