<svg t="1687074447436" class="icon" viewBox="0 0 1024 1024" version="1.1" xmlns="http://www.w3.org/2000/svg" p-id="15754" width="25" height="25" data-spm-anchor-id="a313x.7781069.0.i9"><path d="M321.28 724.032a32 32 0 0 1 3.712 40.832l-3.712 4.48-128 128a32 32 0 0 1-40.832 3.648l-4.416-3.712-64-64a32 32 0 0 1 40.832-48.96l4.48 3.712 41.344 41.344 105.344-105.344a32 32 0 0 1 45.248 0z m596.032 54.656a32 32 0 0 1 5.76 63.488l-5.76 0.512H448a32 32 0 0 1-5.76-63.488l5.76-0.512h469.312zM321.28 425.408a32 32 0 0 1 3.712 40.768l-3.712 4.48-128 128a32 32 0 0 1-40.832 3.648l-4.416-3.648-64-64a32 32 0 0 1 40.832-48.96l4.48 3.648 41.344 41.408 105.344-105.408a32 32 0 0 1 45.248 0z m596.032 54.592a32 32 0 0 1 5.76 63.488l-5.76 0.512H448a32 32 0 0 1-5.76-63.488L448 480h469.312zM321.28 126.72a32 32 0 0 1 3.712 40.832l-3.712 4.416-128 128a32 32 0 0 1-40.832 3.712l-4.416-3.712-64-64a32 32 0 0 1 40.832-48.96l4.48 3.712 41.344 41.344L276.032 126.72a32 32 0 0 1 45.248 0z m596.032 54.592a32 32 0 0 1 5.76 63.488l-5.76 0.512H448a32 32 0 0 1-5.76-63.488L448 181.312h469.312z" fill="#707070" p-id="15755"></path></svg>