<svg t="1687004132127" class="icon" viewBox="0 0 1024 1024" version="1.1" xmlns="http://www.w3.org/2000/svg" p-id="19189" width="45" height="45"><path d="M1023.79 512c0 282.706-229.186 511.898-511.898 511.898C229.182 1023.892 0 794.706 0 512 0 229.289 229.181 0.108 511.892 0.108 794.604 0.108 1023.79 229.289 1023.79 512zM433.92 340.48c0-25.452-20.628-46.08-46.08-46.08-25.452 0-46.08 20.628-46.08 46.08v343.04c0 25.452 20.628 46.08 46.08 46.08 25.452 0 46.08-20.628 46.08-46.08V340.48z m247.68 0c0-25.452-20.628-46.08-46.08-46.08-25.452 0-46.08 20.628-46.08 46.08v343.045c0 25.452 20.628 46.08 46.08 46.08 25.452 0 46.08-20.628 46.08-46.08V340.48z" fill="#DDA0DD" p-id="19190"></path></svg>